<!-- Generated by IcoMoon.io -->
<svg version="1.1" xmlns="http://www.w3.org/2000/svg" width="32" height="32" viewBox="0 0 32 32">
<title>Repository</title>
<path fill="#6a737d" d="M4 5v18c0 0.002 0 0.004 0 0.006 0 1.361 0.545 2.595 1.428 3.495l0 0c0.272 0.278 0.652 0.45 1.072 0.45 0.829 0 1.501-0.672 1.501-1.501 0-0.409-0.164-0.78-0.429-1.050l0 0c-0.354-0.361-0.572-0.855-0.572-1.4 0-1.104 0.895-2 2-2h16v4h-3.5c-0.828 0-1.5 0.672-1.5 1.5s0.672 1.5 1.5 1.5h5c0.828 0 1.5-0.672 1.5-1.5v-25c0-0.828-0.672-1.5-1.5-1.5h-17.5c-2.761 0-5 2.239-5 5zM25 3v15h-16c-0.712 0-1.388 0.148-2 0.416v-13.416c0-1.105 0.895-2 2-2v0h16zM10 24.5v0c0-0.276 0.224-0.5 0.5-0.5h7c0.276 0 0.5 0.224 0.5 0.5v6.5c0 0.276-0.224 0.5-0.5 0.5-0.113 0-0.217-0.038-0.3-0.1l-2.899-2.173c-0.084-0.063-0.188-0.101-0.301-0.101s-0.217 0.038-0.3 0.1l-2.899 2.173c-0.084 0.063-0.188 0.101-0.301 0.101-0.276 0-0.5-0.224-0.5-0.5v-6.5z"></path>
</svg>
