<!-- Generated by IcoMoon.io -->
<svg version="1.1" xmlns="http://www.w3.org/2000/svg" width="32" height="32" viewBox="0 0 32 32">
<title>Search</title>
<path fill="#6a737d" d="M23 14v0c0-4.969-4.029-8.998-8.998-8.998s-8.998 4.029-8.998 8.998v0c0 4.969 4.029 8.998 8.998 8.998s8.998-4.029 8.998-8.998zM21.36 23.48c-2.010 1.572-4.574 2.521-7.359 2.521-6.627 0-12-5.373-12-12s5.373-12 12-12c6.627 0 12 5.373 12 12 0 2.785-0.949 5.349-2.541 7.385l0.020-0.026 6.080 6.080c0.294 0.275 0.477 0.665 0.477 1.097 0 0.828-0.672 1.5-1.5 1.5-0.433 0-0.823-0.183-1.097-0.477l-0.001-0.001-6.080-6.080z"></path>
</svg>
