<!-- Generated by IcoMoon.io -->
<svg version="1.1" xmlns="http://www.w3.org/2000/svg" width="32" height="32" viewBox="0 0 32 32">
<title>svgexport-13</title>
<path fill="#6a737d" d="M3 28.5c0 0.276 0.224 0.5 0.5 0.5h4.5v-2.5c0-0.828 0.672-1.5 1.5-1.5v0h5c0.828 0 1.5 0.672 1.5 1.5v0 2.5h4.5c0.276 0 0.5-0.224 0.5-0.5v0-25c0-0.276-0.224-0.5-0.5-0.5v0h-17c-0.276 0-0.5 0.224-0.5 0.5v0 25zM3.5 32c-1.933 0-3.5-1.567-3.5-3.5v0-25c0-1.932 1.568-3.5 3.5-3.5h17c1.932 0 3.5 1.568 3.5 3.5v25c0 0.17-0.012 0.336-0.036 0.5h4.536c0.276 0 0.5-0.224 0.5-0.5v0-11.93c0-0 0-0 0-0 0-0.172-0.087-0.325-0.22-0.414l-0.002-0.001-2.11-1.406c-0.413-0.272-0.682-0.733-0.682-1.257 0-0.828 0.672-1.5 1.5-1.5 0.316 0 0.609 0.098 0.851 0.264l-0.005-0.003 2.11 1.406c0.974 0.65 1.558 1.742 1.558 2.912v11.93c0 1.933-1.567 3.5-3.5 3.5v0h-7c-0.001 0-0.002 0-0.002 0-0.139 0-0.274-0.019-0.402-0.055l0.011 0.003c-0.198 0.034-0.4 0.052-0.606 0.052h-6c-0.828 0-1.5-0.672-1.5-1.5v0-2.5h-2v2.5c0 0.828-0.672 1.5-1.5 1.5v0h-6zM6 7.5c0-0.828 0.672-1.5 1.5-1.5v0h1c0.828 0 1.5 0.672 1.5 1.5s-0.672 1.5-1.5 1.5v0h-1c-0.828 0-1.5-0.672-1.5-1.5v0zM7.5 12c-0.828 0-1.5 0.672-1.5 1.5s0.672 1.5 1.5 1.5v0h1c0.828 0 1.5-0.672 1.5-1.5s-0.672-1.5-1.5-1.5v0h-1zM6 19.5c0-0.828 0.672-1.5 1.5-1.5v0h1c0.828 0 1.5 0.672 1.5 1.5s-0.672 1.5-1.5 1.5v0h-1c-0.828 0-1.5-0.672-1.5-1.5v0zM15.5 18c-0.828 0-1.5 0.672-1.5 1.5s0.672 1.5 1.5 1.5v0h1c0.828 0 1.5-0.672 1.5-1.5s-0.672-1.5-1.5-1.5v0h-1zM14 13.5c0-0.828 0.672-1.5 1.5-1.5v0h1c0.828 0 1.5 0.672 1.5 1.5s-0.672 1.5-1.5 1.5v0h-1c-0.828 0-1.5-0.672-1.5-1.5v0zM15.5 6c-0.828 0-1.5 0.672-1.5 1.5s0.672 1.5 1.5 1.5v0h1c0.828 0 1.5-0.672 1.5-1.5s-0.672-1.5-1.5-1.5v0h-1z"></path>
</svg>
