<!-- Generated by IcoMoon.io -->
<svg version="1.1" xmlns="http://www.w3.org/2000/svg" width="39" height="32" viewBox="0 0 39 32">
<title>svgexport-16</title>
<path fill="#6a737d" d="M39.37 3.786c-1.35 0.619-2.917 1.065-4.561 1.26l-0.074 0.007c1.673-1.008 2.93-2.559 3.539-4.405l0.016-0.057c-1.48 0.889-3.201 1.568-5.034 1.94l-0.105 0.018c-1.477-1.57-3.568-2.548-5.888-2.548-4.46 0-8.076 3.616-8.076 8.076 0 0 0 0 0 0v0c-0 0.007-0 0.015-0 0.023 0 0.646 0.079 1.273 0.227 1.873l-0.011-0.053c-6.729-0.351-12.648-3.546-16.623-8.395l-0.032-0.041c-0.688 1.163-1.094 2.564-1.094 4.059 0 2.792 1.416 5.253 3.57 6.704l0.029 0.018c-1.348-0.044-2.602-0.412-3.697-1.029l0.040 0.021v0.101c0 0 0 0 0 0 0 3.895 2.757 7.146 6.425 7.908l0.052 0.009c-0.638 0.183-1.371 0.288-2.128 0.288-0.001 0-0.002 0-0.002 0h0c-0.543-0.005-1.070-0.057-1.581-0.153l0.056 0.009c1.064 3.234 4.025 5.541 7.534 5.614l0.009 0c-2.731 2.154-6.222 3.455-10.016 3.455-0.006 0-0.012 0-0.018 0h0.001c-0.682-0.002-1.352-0.044-2.011-0.123l0.082 0.008c3.493 2.275 7.767 3.628 12.358 3.628 0.008 0 0.015 0 0.023 0h-0.001c14.856 0 22.974-12.308 22.974-22.974 0-0.345-0.014-0.705-0.029-1.051 1.593-1.158 2.935-2.546 4.008-4.131l0.037-0.058z"></path>
</svg>
