<!-- Generated by IcoMoon.io -->
<svg version="1.1" xmlns="http://www.w3.org/2000/svg" width="32" height="32" viewBox="0 0 32 32">
<title>svgexport-12</title>
<path fill="#959da5" d="M17.756 0.784l10.5 6.090c1.080 0.628 1.744 1.78 1.744 3.028v12.196c0 1.248-0.664 2.402-1.744 3.028l-10.484 6.081c-0.52 0.306-1.126 0.481-1.772 0.481s-1.253-0.175-1.756-0.472l-10.5-6.090c-1.080-0.628-1.744-1.78-1.744-3.028v-12.196c0-0 0-0 0-0 0-1.286 0.694-2.41 1.744-3.028l10.484-6.081c0.52-0.306 1.126-0.481 1.772-0.481s1.253 0.175 1.756 0.472zM15.75 3.38l-9.26 5.37 9.51 5.516 9.51-5.516-9.258-5.369c-0.074-0.043-0.16-0.068-0.252-0.068s-0.178 0.025-0.25 0.067zM5 11.354v10.744c0 0.18 0.094 0.342 0.25 0.432l9.25 5.366v-11.032l-9.5-5.51zM17.5 27.896l9.25-5.366c0.15-0.088 0.25-0.248 0.25-0.432v-10.744l-9.5 5.51v11.032z"></path>
</svg>
