<!-- Generated by IcoMoon.io -->
<svg version="1.1" xmlns="http://www.w3.org/2000/svg" width="32" height="32" viewBox="0 0 32 32">
<title>svgexport-7</title>
<path fill="#586069" d="M7.44 7.44c0.271-0.271 0.646-0.439 1.060-0.439s0.789 0.168 1.060 0.439l6.44 6.44 6.44-6.44c0.275-0.294 0.665-0.477 1.097-0.477 0.828 0 1.5 0.672 1.5 1.5 0 0.433-0.183 0.823-0.477 1.097l-0.001 0.001-6.44 6.44 6.44 6.44c0.294 0.275 0.477 0.665 0.477 1.097 0 0.828-0.672 1.5-1.5 1.5-0.433 0-0.823-0.183-1.097-0.477l-0.001-0.001-6.44-6.44-6.44 6.44c-0.267 0.249-0.627 0.403-1.023 0.403-0.828 0-1.5-0.672-1.5-1.5 0-0.396 0.153-0.755 0.403-1.023l-0.001 0.001 6.44-6.44-6.44-6.44c-0.271-0.271-0.439-0.646-0.439-1.060s0.168-0.789 0.439-1.060l-0 0z"></path>
</svg>
