<!-- Generated by IcoMoon.io -->
<svg version="1.1" xmlns="http://www.w3.org/2000/svg" width="32" height="32" viewBox="0 0 32 32">
<title>svgexport-4</title>
<path fill="#fff" d="M16 32c0 0 0.001 0 0.001 0 2.033 0 3.712-1.517 3.966-3.48l0.002-0.020c0.034-0.274-0.194-0.5-0.47-0.5h-7c-0.276 0-0.504 0.226-0.47 0.5 0.257 1.983 1.936 3.5 3.969 3.5 0 0 0.001 0 0.001 0h-0z"></path>
<path fill="#fff" d="M16 3c-3.866 0-7 3.134-7 7v0 5.894c0 0.692-0.204 1.366-0.588 1.94l-3.406 5.112c-0.004 0.006-0.006 0.012-0.006 0.020 0 0 0 0 0 0v0l0.002 0.012c0 0.004 0.004 0.008 0.008 0.012s0.007 0.006 0.012 0.008l0 0 0.014 0.002 21.942-0.002c0.005-0.002 0.009-0.005 0.012-0.008v-0c0.003-0.003 0.006-0.007 0.008-0.012l0-0 0.002-0.014c0-0 0-0 0-0.001 0-0.007-0.002-0.014-0.006-0.019l0 0-3.406-5.108c-0.368-0.545-0.588-1.217-0.588-1.94v-5.896c0-3.866-3.134-7-7-7v0zM6 10c0-5.523 4.477-10 10-10s10 4.477 10 10v0 5.894c0 0.1 0.030 0.196 0.084 0.278l3.406 5.11c0.319 0.473 0.509 1.055 0.509 1.682 0 1.676-1.358 3.035-3.034 3.036h-21.928c-1.677-0-3.036-1.359-3.036-3.036 0-0.628 0.19-1.211 0.517-1.695l-0.007 0.011 3.406-5.108c0.053-0.078 0.084-0.174 0.084-0.277 0-0 0-0 0-0.001v0-5.894z"></path>
</svg>
