<!-- Generated by IcoMoon.io -->
<svg version="1.1" xmlns="http://www.w3.org/2000/svg" width="32" height="32" viewBox="0 0 32 32">
<title>svgexport-17</title>
<path fill="#6a737d" d="M11 7c-2.209 0-4 1.791-4 4s1.791 4 4 4v0c2.209 0 4-1.791 4-4s-1.791-4-4-4v0zM4 11c0-0 0-0.001 0-0.001 0-3.866 3.134-7 7-7s7 3.134 7 7c0 2.008-0.846 3.819-2.2 5.096l-0.004 0.003c3.187 1.572 5.473 4.551 6.059 8.104l0.009 0.064c0.012 0.071 0.019 0.152 0.019 0.235 0 0.829-0.672 1.501-1.501 1.501-0.746 0-1.364-0.544-1.481-1.257l-0.001-0.009c-0.636-3.838-3.93-6.728-7.9-6.728s-7.264 2.891-7.894 6.682l-0.006 0.047c-0.118 0.721-0.737 1.265-1.482 1.265-0.829 0-1.501-0.672-1.501-1.501 0-0.083 0.007-0.165 0.020-0.245l-0.001 0.009c0.596-3.615 2.882-6.593 6.004-8.135l0.064-0.029c-1.358-1.277-2.204-3.085-2.204-5.090 0-0.003 0-0.007 0-0.010v0.001zM22 8c-0.828 0-1.5 0.672-1.5 1.5s0.672 1.5 1.5 1.5v0c1.657 0 3 1.343 3 3 0 1.172-0.672 2.186-1.651 2.68l-0.017 0.008c-0.497 0.251-0.832 0.758-0.832 1.343 0 0 0 0.001 0 0.001v-0 0.704c0 0.001 0 0.001 0 0.002 0 0.704 0.484 1.294 1.138 1.456l0.010 0.002c2.4 0.578 4.324 2.4 5.044 4.744 0.192 0.622 0.762 1.066 1.436 1.066 0.828 0 1.5-0.672 1.5-1.5 0-0.159-0.025-0.313-0.071-0.457l0.003 0.011c-0.837-2.658-2.676-4.791-5.063-5.998l-0.057-0.026c0.968-1.061 1.56-2.48 1.56-4.036 0-3.314-2.686-6-6-6-0 0-0 0-0 0h0z"></path>
</svg>
