<!-- Generated by IcoMoon.io -->
<svg version="1.1" xmlns="http://www.w3.org/2000/svg" width="32" height="32" viewBox="0 0 32 32">
<title>svgexport-3</title>
<path fill="#fff" d="M4 5.5c0-1.932 1.568-3.5 3.5-3.5h5c0.828 0 1.5 0.672 1.5 1.5s-0.672 1.5-1.5 1.5v0h-5c-0.276 0-0.5 0.224-0.5 0.5v0 21c0 0.276 0.224 0.5 0.5 0.5h5c0.828 0 1.5 0.672 1.5 1.5s-0.672 1.5-1.5 1.5v0h-5c-1.933 0-3.5-1.567-3.5-3.5v0-21zM24.88 14.5h-11.38c-0.828 0-1.5 0.672-1.5 1.5s0.672 1.5 1.5 1.5v0h11.38l-3.94 3.94c-0.294 0.275-0.477 0.665-0.477 1.097 0 0.828 0.672 1.5 1.5 1.5 0.433 0 0.823-0.183 1.097-0.477l0.001-0.001 6.5-6.5c0.271-0.271 0.439-0.646 0.439-1.060s-0.168-0.789-0.439-1.060l-6.5-6.5c-0.275-0.294-0.665-0.477-1.097-0.477-0.828 0-1.5 0.672-1.5 1.5 0 0.433 0.183 0.823 0.477 1.097l0.001 0.001 3.94 3.94z"></path>
</svg>
