<!-- Generated by IcoMoon.io -->
<svg version="1.1" xmlns="http://www.w3.org/2000/svg" width="32" height="32" viewBox="0 0 32 32">
<title>svgexport-6</title>
<path fill="#586069" d="M3 16c0-7.18 5.82-13 13-13s13 5.82 13 13v0c0 7.18-5.82 13-13 13s-13-5.82-13-13v0zM16 0c-8.837 0-16 7.163-16 16s7.163 16 16 16v0c8.837 0 16-7.163 16-16s-7.163-16-16-16v0zM10 16c1.105 0 2-0.895 2-2s-0.895-2-2-2v0c-1.105 0-2 0.895-2 2s0.895 2 2 2v0zM24 14c0 1.105-0.895 2-2 2s-2-0.895-2-2v0c0-1.105 0.895-2 2-2s2 0.895 2 2v0zM10.64 19.272c0.24-0.17 0.538-0.271 0.86-0.271 0.498 0 0.94 0.243 1.213 0.617l0.003 0.004 0.014 0.018c0.206 0.236 0.44 0.444 0.7 0.62 0.528 0.356 1.366 0.74 2.57 0.74s2.040-0.384 2.57-0.742c0.26-0.176 0.494-0.384 0.7-0.62l0.014-0.016c0.275-0.383 0.72-0.63 1.222-0.63 0.828 0 1.5 0.672 1.5 1.5 0 0.326-0.104 0.628-0.281 0.874l0.003-0.004-1.228-0.862c1.228 0.86 1.228 0.862 1.226 0.862v0.002l-0.002 0.004-0.004 0.006-0.010 0.014-0.028 0.038c-0.118 0.157-0.239 0.296-0.368 0.426l0-0c-0.32 0.332-0.676 0.632-1.060 0.89-1.26 0.836-2.74 1.276-4.254 1.258-1.892 0-3.304-0.616-4.252-1.26-0.548-0.375-1.019-0.809-1.42-1.302l-0.010-0.012-0.028-0.040-0.010-0.012-0.004-0.006v-0.004h-0.002l1.226-0.864-1.228 0.86c-0.17-0.24-0.272-0.538-0.272-0.861 0-0.505 0.25-0.952 0.633-1.224l0.005-0.003h0.002z"></path>
</svg>
