<!-- Generated by IcoMoon.io -->
<svg version="1.1" xmlns="http://www.w3.org/2000/svg" width="32" height="32" viewBox="0 0 32 32">
<title>svgexport-21</title>
<path d="M27.56 8.44c0.271 0.271 0.439 0.646 0.439 1.060s-0.168 0.789-0.439 1.060l-14.5 14.5c-0.271 0.271-0.646 0.439-1.060 0.439s-0.789-0.168-1.060-0.439l-6.5-6.5c-0.249-0.267-0.403-0.627-0.403-1.023 0-0.828 0.672-1.5 1.5-1.5 0.396 0 0.755 0.153 1.023 0.403l-0.001-0.001 5.44 5.44 13.44-13.44c0.271-0.271 0.646-0.439 1.060-0.439s0.789 0.168 1.060 0.439l-0-0z"></path>
</svg>
