<!-- Generated by IcoMoon.io -->
<svg version="1.1" xmlns="http://www.w3.org/2000/svg" width="32" height="32" viewBox="0 0 32 32">
<title>svgexport-2</title>
<path fill="#fff" d="M2 5.5c0-0.828 0.672-1.5 1.5-1.5v0h25c0.828 0 1.5 0.672 1.5 1.5s-0.672 1.5-1.5 1.5v0h-25c-0.828 0-1.5-0.672-1.5-1.5v0zM2 15.5c0-0.828 0.672-1.5 1.5-1.5v0h25c0.828 0 1.5 0.672 1.5 1.5s-0.672 1.5-1.5 1.5v0h-25c-0.828 0-1.5-0.672-1.5-1.5v0zM3.5 24c-0.828 0-1.5 0.672-1.5 1.5s0.672 1.5 1.5 1.5v0h25c0.828 0 1.5-0.672 1.5-1.5s-0.672-1.5-1.5-1.5v0h-25z"></path>
</svg>
