<!-- Generated by IcoMoon.io -->
<svg version="1.1" xmlns="http://www.w3.org/2000/svg" width="32" height="32" viewBox="0 0 32 32">
<title>svgexport-44</title>
<path fill="rgba(158, 28, 35, 0.6)" d="M16.44 3.508c-0.086-0.158-0.251-0.263-0.44-0.263s-0.354 0.105-0.439 0.26l-0.001 0.003-12.164 22.756c-0.037 0.068-0.059 0.15-0.059 0.236 0 0.276 0.223 0.5 0.499 0.5h24.328c0.276-0 0.499-0.224 0.499-0.5 0-0.086-0.022-0.168-0.061-0.239l0.001 0.003-12.164-22.756zM12.914 2.094c1.318-2.468 4.854-2.468 6.172 0l12.164 22.756c0.26 0.478 0.413 1.046 0.413 1.65 0 1.933-1.567 3.5-3.499 3.5h-24.328c-1.933-0-3.499-1.567-3.499-3.5 0-0.604 0.153-1.172 0.422-1.668l-0.009 0.018 12.164-22.756zM18 22c0 1.105-0.895 2-2 2s-2-0.895-2-2v0c0-1.105 0.895-2 2-2s2 0.895 2 2v0zM17.5 11.5c0-0.828-0.672-1.5-1.5-1.5s-1.5 0.672-1.5 1.5v0 5c0 0.828 0.672 1.5 1.5 1.5s1.5-0.672 1.5-1.5v0-5z"></path>
</svg>
