<!-- Generated by IcoMoon.io -->
<svg version="1.1" xmlns="http://www.w3.org/2000/svg" width="32" height="32" viewBox="0 0 32 32">
<title>svgexport-15</title>
<path fill="#6a737d" d="M15.55 6.55c-0.249 0.267-0.403 0.627-0.403 1.023 0 0.828 0.672 1.5 1.5 1.5 0.396 0 0.755-0.153 1.023-0.403l-0.001 0.001 2.5-2.5c0.724-0.724 1.725-1.172 2.83-1.172 2.21 0 4.002 1.792 4.002 4.002 0 1.105-0.448 2.106-1.172 2.83l-5 5c-0.724 0.725-1.725 1.173-2.83 1.173s-2.106-0.448-2.83-1.173l-0-0c-0.267-0.249-0.627-0.403-1.023-0.403-0.828 0-1.5 0.672-1.5 1.5 0 0.396 0.153 0.755 0.403 1.023l-0.001-0.001c1.267 1.267 3.017 2.050 4.95 2.050s3.683-0.784 4.95-2.050l5-5c1.267-1.267 2.050-3.017 2.050-4.95 0-3.866-3.134-7-7-7-1.933 0-3.683 0.784-4.95 2.050l-2.5 2.5zM6.17 25.83c-0.725-0.724-1.173-1.725-1.173-2.83s0.448-2.106 1.173-2.83l5-5c0.724-0.725 1.725-1.173 2.83-1.173s2.106 0.448 2.83 1.173l0 0c0.267 0.249 0.627 0.403 1.023 0.403 0.828 0 1.5-0.672 1.5-1.5 0-0.396-0.153-0.755-0.403-1.023l0.001 0.001c-1.267-1.267-3.017-2.050-4.95-2.050s-3.683 0.784-4.95 2.050l-5 5c-1.267 1.267-2.050 3.017-2.050 4.95 0 3.866 3.134 7 7 7 1.933 0 3.683-0.784 4.95-2.050l2.5-2.5c0.249-0.267 0.403-0.627 0.403-1.023 0-0.828-0.672-1.5-1.5-1.5-0.396 0-0.755 0.153-1.023 0.403l0.001-0.001-2.5 2.5c-0.724 0.725-1.725 1.173-2.83 1.173s-2.106-0.448-2.83-1.173l-0-0z"></path>
</svg>
