<!-- Generated by IcoMoon.io -->
<svg version="1.1" xmlns="http://www.w3.org/2000/svg" width="32" height="32" viewBox="0 0 32 32">
<title>svgexport-32</title>
<path fill="#586069" d="M10 6.5c0 0.828-0.672 1.5-1.5 1.5s-1.5-0.672-1.5-1.5v0c0-0.828 0.672-1.5 1.5-1.5s1.5 0.672 1.5 1.5v0zM10 10.744c1.763-0.636 3-2.295 3-4.243 0-2.485-2.015-4.5-4.5-4.5s-4.5 2.015-4.5 4.5c0 1.948 1.237 3.606 2.969 4.233l0.031 0.010v1.756c0 2.485 2.015 4.5 4.5 4.5v0h3v4.256c-1.764 0.637-3.002 2.296-3.002 4.245 0 2.486 2.016 4.502 4.502 4.502s4.502-2.016 4.502-4.502c0-1.949-1.238-3.608-2.971-4.235l-0.031-0.010v-4.256h3c2.485 0 4.5-2.015 4.5-4.5v0-1.756c1.763-0.636 3-2.295 3-4.243 0-2.485-2.015-4.5-4.5-4.5s-4.5 2.015-4.5 4.5c0 1.948 1.237 3.606 2.969 4.233l0.031 0.010v1.756c0 0.828-0.672 1.5-1.5 1.5v0h-9c-0.828 0-1.5-0.672-1.5-1.5v0-1.756zM17.5 25.5c0 0.828-0.672 1.5-1.5 1.5s-1.5-0.672-1.5-1.5v0c0-0.828 0.672-1.5 1.5-1.5s1.5 0.672 1.5 1.5v0zM23.5 8c0.828 0 1.5-0.672 1.5-1.5s-0.672-1.5-1.5-1.5v0c-0.828 0-1.5 0.672-1.5 1.5s0.672 1.5 1.5 1.5v0z"></path>
</svg>
