<!-- Generated by IcoMoon.io -->
<svg version="1.1" xmlns="http://www.w3.org/2000/svg" width="32" height="32" viewBox="0 0 32 32">
<title>svgexport-24</title>
<path fill="#6a737d" d="M16 0.5c0 0 0.001 0 0.001 0 0.587 0 1.095 0.337 1.341 0.827l0.004 0.009 3.764 7.63 8.42 1.224c0.73 0.109 1.284 0.732 1.284 1.484 0 0.421-0.173 0.801-0.452 1.073l-0 0-6.092 5.94 1.438 8.384c0.014 0.076 0.022 0.164 0.022 0.254 0 0.828-0.672 1.5-1.5 1.5-0.255 0-0.495-0.064-0.706-0.176l0.008 0.004-7.532-3.96-7.532 3.96c-0.202 0.108-0.442 0.172-0.697 0.172-0.828 0-1.5-0.672-1.5-1.5 0-0.089 0.008-0.176 0.023-0.261l-0.001 0.009 1.44-8.388-6.096-5.938c-0.28-0.273-0.454-0.654-0.454-1.075 0-0.753 0.555-1.376 1.278-1.484l0.008-0.001 8.42-1.222 3.766-7.63c0.251-0.499 0.758-0.836 1.345-0.836 0 0 0.001 0 0.001 0h-0zM16 5.39l-2.77 5.61c-0.218 0.435-0.63 0.745-1.12 0.819l-0.008 0.001-6.194 0.9 4.48 4.368c0.28 0.273 0.454 0.653 0.454 1.075 0 0.090-0.008 0.177-0.023 0.262l0.001-0.009-1.056 6.168 5.538-2.912c0.202-0.109 0.443-0.172 0.698-0.172s0.496 0.064 0.706 0.176l-0.008-0.004 5.54 2.912-1.060-6.168c-0.014-0.076-0.022-0.164-0.022-0.253 0-0.421 0.174-0.802 0.453-1.074l0-0 4.48-4.366-6.192-0.9c-0.498-0.075-0.91-0.385-1.124-0.811l-0.004-0.009-2.77-5.612z"></path>
</svg>
