<!-- Generated by IcoMoon.io -->
<svg version="1.1" xmlns="http://www.w3.org/2000/svg" width="32" height="32" viewBox="0 0 32 32">
<title>svgexport-14</title>
<path fill="#6a737d" d="M23.072 6.928c1.81 1.81 2.93 4.31 2.93 7.072s-1.12 5.262-2.93 7.072l-7.072 7.068-7.072-7.070c-1.81-1.81-2.929-4.31-2.929-7.072 0-5.524 4.478-10.001 10.001-10.001 2.762 0 5.262 1.119 7.072 2.929v0 0.002zM25.192 23.192c2.353-2.353 3.808-5.603 3.808-9.193 0-7.18-5.82-13-13-13s-13 5.82-13 13c0 3.59 1.455 6.84 3.808 9.193l7.070 7.072c0.543 0.543 1.293 0.879 2.122 0.879s1.579-0.336 2.122-0.879l7.070-7.072zM16 18c2.209 0 4-1.791 4-4s-1.791-4-4-4v0c-2.209 0-4 1.791-4 4s1.791 4 4 4v0z"></path>
</svg>
