<!-- Generated by IcoMoon.io -->
<svg version="1.1" xmlns="http://www.w3.org/2000/svg" width="32" height="32" viewBox="0 0 32 32">
<title>svgexport-9</title>
<path fill="#959da5" d="M0 3.5c0-0.828 0.672-1.5 1.5-1.5v0h8.506c2.454 0 4.634 1.18 6 3.002 1.38-1.831 3.551-3.002 5.995-3.002 0.004 0 0.007 0 0.011 0h8.489c0.828 0 1.5 0.672 1.5 1.5v0 21c0 0.828-0.672 1.5-1.5 1.5v0h-9.014c0 0-0 0-0 0-1.243 0-2.368 0.504-3.182 1.318v0l-1.244 1.242c-0.271 0.271-0.646 0.439-1.060 0.439s-0.789-0.168-1.060-0.439l-1.244-1.242c-0.814-0.814-1.939-1.318-3.182-1.318 0 0-0 0-0 0h-9.016c-0.828 0-1.5-0.672-1.5-1.5v0-21zM17.51 9.5l-0.008 14.644c1.184-0.742 2.564-1.144 3.984-1.144h7.514v-18h-6.99c-2.485 0-4.5 2.015-4.5 4.5zM14.502 24.148l0.008-10.146-0.004-4.506c-0.002-2.484-2.016-4.496-4.5-4.496h-7.006v18h7.514c0 0 0 0 0 0 1.478 0 2.857 0.428 4.018 1.166l-0.030-0.018z"></path>
</svg>
