<svg aria-hidden="true" style="position: absolute; width: 0; height: 0; overflow: hidden;" version="1.1" xmlns="http://www.w3.org/2000/svg" xmlns:xlink="http://www.w3.org/1999/xlink">
<defs>
<symbol id="icon-Project" viewBox="0 0 32 32">
<path fill="#6a737d" style="fill: var(--color1, #6a737d)" d="M3.5 0c-1.933 0-3.5 1.567-3.5 3.5v0 25c0 1.932 1.568 3.5 3.5 3.5h25c1.933 0 3.5-1.567 3.5-3.5v0-25c0-1.933-1.567-3.5-3.5-3.5v0h-25zM3 3.5c0-0.276 0.224-0.5 0.5-0.5v0h25c0.276 0 0.5 0.224 0.5 0.5v0 25c0 0.276-0.224 0.5-0.5 0.5v0h-25c-0.276 0-0.5-0.224-0.5-0.5v0-25zM23.5 6c-0.828 0-1.5 0.672-1.5 1.5v0 15c0 0.828 0.672 1.5 1.5 1.5s1.5-0.672 1.5-1.5v0-15c0-0.828-0.672-1.5-1.5-1.5v0zM7 7.5c0-0.828 0.672-1.5 1.5-1.5s1.5 0.672 1.5 1.5v0 11c0 0.828-0.672 1.5-1.5 1.5s-1.5-0.672-1.5-1.5v0-11zM16 6c-0.828 0-1.5 0.672-1.5 1.5v0 7c0 0.828 0.672 1.5 1.5 1.5s1.5-0.672 1.5-1.5v0-7c0-0.828-0.672-1.5-1.5-1.5v0z"></path>
</symbol>
<symbol id="icon-Repository" viewBox="0 0 32 32">
<path fill="#6a737d" style="fill: var(--color1, #6a737d)" d="M4 5v18c0 0.002 0 0.004 0 0.006 0 1.361 0.545 2.595 1.428 3.495l0 0c0.272 0.278 0.652 0.45 1.072 0.45 0.829 0 1.501-0.672 1.501-1.501 0-0.409-0.164-0.78-0.429-1.050l0 0c-0.354-0.361-0.572-0.855-0.572-1.4 0-1.104 0.895-2 2-2h16v4h-3.5c-0.828 0-1.5 0.672-1.5 1.5s0.672 1.5 1.5 1.5h5c0.828 0 1.5-0.672 1.5-1.5v-25c0-0.828-0.672-1.5-1.5-1.5h-17.5c-2.761 0-5 2.239-5 5zM25 3v15h-16c-0.712 0-1.388 0.148-2 0.416v-13.416c0-1.105 0.895-2 2-2v0h16zM10 24.5v0c0-0.276 0.224-0.5 0.5-0.5h7c0.276 0 0.5 0.224 0.5 0.5v6.5c0 0.276-0.224 0.5-0.5 0.5-0.113 0-0.217-0.038-0.3-0.1l-2.899-2.173c-0.084-0.063-0.188-0.101-0.301-0.101s-0.217 0.038-0.3 0.1l-2.899 2.173c-0.084 0.063-0.188 0.101-0.301 0.101-0.276 0-0.5-0.224-0.5-0.5v-6.5z"></path>
</symbol>
<symbol id="icon-Search" viewBox="0 0 32 32">
<path fill="#6a737d" style="fill: var(--color1, #6a737d)" d="M23 14v0c0-4.969-4.029-8.998-8.998-8.998s-8.998 4.029-8.998 8.998v0c0 4.969 4.029 8.998 8.998 8.998s8.998-4.029 8.998-8.998zM21.36 23.48c-2.010 1.572-4.574 2.521-7.359 2.521-6.627 0-12-5.373-12-12s5.373-12 12-12c6.627 0 12 5.373 12 12 0 2.785-0.949 5.349-2.541 7.385l0.020-0.026 6.080 6.080c0.294 0.275 0.477 0.665 0.477 1.097 0 0.828-0.672 1.5-1.5 1.5-0.433 0-0.823-0.183-1.097-0.477l-0.001-0.001-6.080-6.080z"></path>
</symbol>
<symbol id="icon-svgexport-1" viewBox="0 0 32 32">
<path fill="#fff" style="fill: var(--color2, #fff)" d="M16 0c-8.84 0-16 7.16-16 16 0 7.080 4.58 13.060 10.94 15.18 0.8 0.14 1.1-0.34 1.1-0.76 0-0.38-0.020-1.64-0.020-2.98-4.020 0.74-5.060-0.98-5.38-1.88-0.18-0.46-0.96-1.88-1.64-2.26-0.56-0.3-1.36-1.040-0.020-1.060 1.26-0.020 2.16 1.16 2.46 1.64 1.44 2.42 3.74 1.74 4.66 1.32 0.14-1.040 0.56-1.74 1.020-2.14-3.56-0.4-7.28-1.78-7.28-7.9 0-1.74 0.62-3.18 1.64-4.3-0.16-0.4-0.72-2.040 0.16-4.24 0 0 1.34-0.42 4.4 1.64 1.28-0.36 2.64-0.54 4-0.54s2.72 0.18 4 0.54c3.060-2.080 4.4-1.64 4.4-1.64 0.88 2.2 0.32 3.84 0.16 4.24 1.020 1.12 1.64 2.54 1.64 4.3 0 6.14-3.74 7.5-7.3 7.9 0.58 0.5 1.080 1.46 1.080 2.96 0 2.14-0.020 3.86-0.020 4.4 0 0.42 0.3 0.92 1.1 0.76 6.39-2.204 10.898-8.165 10.9-15.18v-0c0-8.84-7.16-16-16-16z"></path>
</symbol>
<symbol id="icon-svgexport-2" viewBox="0 0 32 32">
<path fill="#fff" style="fill: var(--color2, #fff)" d="M2 5.5c0-0.828 0.672-1.5 1.5-1.5v0h25c0.828 0 1.5 0.672 1.5 1.5s-0.672 1.5-1.5 1.5v0h-25c-0.828 0-1.5-0.672-1.5-1.5v0zM2 15.5c0-0.828 0.672-1.5 1.5-1.5v0h25c0.828 0 1.5 0.672 1.5 1.5s-0.672 1.5-1.5 1.5v0h-25c-0.828 0-1.5-0.672-1.5-1.5v0zM3.5 24c-0.828 0-1.5 0.672-1.5 1.5s0.672 1.5 1.5 1.5v0h25c0.828 0 1.5-0.672 1.5-1.5s-0.672-1.5-1.5-1.5v0h-25z"></path>
</symbol>
<symbol id="icon-svgexport-3" viewBox="0 0 32 32">
<path fill="#fff" style="fill: var(--color2, #fff)" d="M4 5.5c0-1.932 1.568-3.5 3.5-3.5h5c0.828 0 1.5 0.672 1.5 1.5s-0.672 1.5-1.5 1.5v0h-5c-0.276 0-0.5 0.224-0.5 0.5v0 21c0 0.276 0.224 0.5 0.5 0.5h5c0.828 0 1.5 0.672 1.5 1.5s-0.672 1.5-1.5 1.5v0h-5c-1.933 0-3.5-1.567-3.5-3.5v0-21zM24.88 14.5h-11.38c-0.828 0-1.5 0.672-1.5 1.5s0.672 1.5 1.5 1.5v0h11.38l-3.94 3.94c-0.294 0.275-0.477 0.665-0.477 1.097 0 0.828 0.672 1.5 1.5 1.5 0.433 0 0.823-0.183 1.097-0.477l0.001-0.001 6.5-6.5c0.271-0.271 0.439-0.646 0.439-1.060s-0.168-0.789-0.439-1.060l-6.5-6.5c-0.275-0.294-0.665-0.477-1.097-0.477-0.828 0-1.5 0.672-1.5 1.5 0 0.433 0.183 0.823 0.477 1.097l0.001 0.001 3.94 3.94z"></path>
</symbol>
<symbol id="icon-svgexport-4" viewBox="0 0 32 32">
<path fill="#fff" style="fill: var(--color2, #fff)" d="M16 32c0 0 0.001 0 0.001 0 2.033 0 3.712-1.517 3.966-3.48l0.002-0.020c0.034-0.274-0.194-0.5-0.47-0.5h-7c-0.276 0-0.504 0.226-0.47 0.5 0.257 1.983 1.936 3.5 3.969 3.5 0 0 0.001 0 0.001 0h-0z"></path>
<path fill="#fff" style="fill: var(--color2, #fff)" d="M16 3c-3.866 0-7 3.134-7 7v0 5.894c0 0.692-0.204 1.366-0.588 1.94l-3.406 5.112c-0.004 0.006-0.006 0.012-0.006 0.020 0 0 0 0 0 0v0l0.002 0.012c0 0.004 0.004 0.008 0.008 0.012s0.007 0.006 0.012 0.008l0 0 0.014 0.002 21.942-0.002c0.005-0.002 0.009-0.005 0.012-0.008v-0c0.003-0.003 0.006-0.007 0.008-0.012l0-0 0.002-0.014c0-0 0-0 0-0.001 0-0.007-0.002-0.014-0.006-0.019l0 0-3.406-5.108c-0.368-0.545-0.588-1.217-0.588-1.94v-5.896c0-3.866-3.134-7-7-7v0zM6 10c0-5.523 4.477-10 10-10s10 4.477 10 10v0 5.894c0 0.1 0.030 0.196 0.084 0.278l3.406 5.11c0.319 0.473 0.509 1.055 0.509 1.682 0 1.676-1.358 3.035-3.034 3.036h-21.928c-1.677-0-3.036-1.359-3.036-3.036 0-0.628 0.19-1.211 0.517-1.695l-0.007 0.011 3.406-5.108c0.053-0.078 0.084-0.174 0.084-0.277 0-0 0-0 0-0.001v0-5.894z"></path>
</symbol>
<symbol id="icon-svgexport-5" viewBox="0 0 32 32">
<path fill="#fff" style="fill: var(--color2, #fff)" d="M16 4c0.828 0 1.5 0.672 1.5 1.5v0 9h9c0.828 0 1.5 0.672 1.5 1.5s-0.672 1.5-1.5 1.5v0h-9v9c0 0.828-0.672 1.5-1.5 1.5s-1.5-0.672-1.5-1.5v0-9h-9c-0.828 0-1.5-0.672-1.5-1.5s0.672-1.5 1.5-1.5v0h9v-9c0-0.828 0.672-1.5 1.5-1.5v0z"></path>
</symbol>
<symbol id="icon-svgexport-6" viewBox="0 0 32 32">
<path fill="#586069" style="fill: var(--color3, #586069)" d="M3 16c0-7.18 5.82-13 13-13s13 5.82 13 13v0c0 7.18-5.82 13-13 13s-13-5.82-13-13v0zM16 0c-8.837 0-16 7.163-16 16s7.163 16 16 16v0c8.837 0 16-7.163 16-16s-7.163-16-16-16v0zM10 16c1.105 0 2-0.895 2-2s-0.895-2-2-2v0c-1.105 0-2 0.895-2 2s0.895 2 2 2v0zM24 14c0 1.105-0.895 2-2 2s-2-0.895-2-2v0c0-1.105 0.895-2 2-2s2 0.895 2 2v0zM10.64 19.272c0.24-0.17 0.538-0.271 0.86-0.271 0.498 0 0.94 0.243 1.213 0.617l0.003 0.004 0.014 0.018c0.206 0.236 0.44 0.444 0.7 0.62 0.528 0.356 1.366 0.74 2.57 0.74s2.040-0.384 2.57-0.742c0.26-0.176 0.494-0.384 0.7-0.62l0.014-0.016c0.275-0.383 0.72-0.63 1.222-0.63 0.828 0 1.5 0.672 1.5 1.5 0 0.326-0.104 0.628-0.281 0.874l0.003-0.004-1.228-0.862c1.228 0.86 1.228 0.862 1.226 0.862v0.002l-0.002 0.004-0.004 0.006-0.010 0.014-0.028 0.038c-0.118 0.157-0.239 0.296-0.368 0.426l0-0c-0.32 0.332-0.676 0.632-1.060 0.89-1.26 0.836-2.74 1.276-4.254 1.258-1.892 0-3.304-0.616-4.252-1.26-0.548-0.375-1.019-0.809-1.42-1.302l-0.010-0.012-0.028-0.040-0.010-0.012-0.004-0.006v-0.004h-0.002l1.226-0.864-1.228 0.86c-0.17-0.24-0.272-0.538-0.272-0.861 0-0.505 0.25-0.952 0.633-1.224l0.005-0.003h0.002z"></path>
</symbol>
<symbol id="icon-svgexport-7" viewBox="0 0 32 32">
<path fill="#586069" style="fill: var(--color3, #586069)" d="M7.44 7.44c0.271-0.271 0.646-0.439 1.060-0.439s0.789 0.168 1.060 0.439l6.44 6.44 6.44-6.44c0.275-0.294 0.665-0.477 1.097-0.477 0.828 0 1.5 0.672 1.5 1.5 0 0.433-0.183 0.823-0.477 1.097l-0.001 0.001-6.44 6.44 6.44 6.44c0.294 0.275 0.477 0.665 0.477 1.097 0 0.828-0.672 1.5-1.5 1.5-0.433 0-0.823-0.183-1.097-0.477l-0.001-0.001-6.44-6.44-6.44 6.44c-0.267 0.249-0.627 0.403-1.023 0.403-0.828 0-1.5-0.672-1.5-1.5 0-0.396 0.153-0.755 0.403-1.023l-0.001 0.001 6.44-6.44-6.44-6.44c-0.271-0.271-0.439-0.646-0.439-1.060s0.168-0.789 0.439-1.060l-0 0z"></path>
</symbol>
<symbol id="icon-svgexport-8" viewBox="0 0 32 32">
<path fill="#6a737d" style="fill: var(--color1, #6a737d)" d="M3 16c0-7.18 5.82-13 13-13s13 5.82 13 13v0c0 7.18-5.82 13-13 13s-13-5.82-13-13v0zM16 0c-8.837 0-16 7.163-16 16s7.163 16 16 16v0c8.837 0 16-7.163 16-16s-7.163-16-16-16v0zM10 16c1.105 0 2-0.895 2-2s-0.895-2-2-2v0c-1.105 0-2 0.895-2 2s0.895 2 2 2v0zM24 14c0 1.105-0.895 2-2 2s-2-0.895-2-2v0c0-1.105 0.895-2 2-2s2 0.895 2 2v0zM10.64 19.272c0.24-0.17 0.538-0.271 0.86-0.271 0.498 0 0.94 0.243 1.213 0.617l0.003 0.004 0.014 0.018c0.206 0.236 0.44 0.444 0.7 0.62 0.528 0.356 1.366 0.74 2.57 0.74s2.040-0.384 2.57-0.742c0.26-0.176 0.494-0.384 0.7-0.62l0.014-0.016c0.275-0.383 0.72-0.63 1.222-0.63 0.828 0 1.5 0.672 1.5 1.5 0 0.326-0.104 0.628-0.281 0.874l0.003-0.004-1.228-0.862c1.228 0.86 1.228 0.862 1.226 0.862v0.002l-0.002 0.004-0.004 0.006-0.010 0.014-0.028 0.038c-0.118 0.157-0.239 0.296-0.368 0.426l0-0c-0.32 0.332-0.676 0.632-1.060 0.89-1.26 0.836-2.74 1.276-4.254 1.258-1.892 0-3.304-0.616-4.252-1.26-0.548-0.375-1.019-0.809-1.42-1.302l-0.010-0.012-0.028-0.040-0.010-0.012-0.004-0.006v-0.004h-0.002l1.226-0.864-1.228 0.86c-0.17-0.24-0.272-0.538-0.272-0.861 0-0.505 0.25-0.952 0.633-1.224l0.005-0.003h0.002z"></path>
</symbol>
<symbol id="icon-svgexport-9" viewBox="0 0 32 32">
<path fill="#959da5" style="fill: var(--color4, #959da5)" d="M0 3.5c0-0.828 0.672-1.5 1.5-1.5v0h8.506c2.454 0 4.634 1.18 6 3.002 1.38-1.831 3.551-3.002 5.995-3.002 0.004 0 0.007 0 0.011 0h8.489c0.828 0 1.5 0.672 1.5 1.5v0 21c0 0.828-0.672 1.5-1.5 1.5v0h-9.014c0 0-0 0-0 0-1.243 0-2.368 0.504-3.182 1.318v0l-1.244 1.242c-0.271 0.271-0.646 0.439-1.060 0.439s-0.789-0.168-1.060-0.439l-1.244-1.242c-0.814-0.814-1.939-1.318-3.182-1.318 0 0-0 0-0 0h-9.016c-0.828 0-1.5-0.672-1.5-1.5v0-21zM17.51 9.5l-0.008 14.644c1.184-0.742 2.564-1.144 3.984-1.144h7.514v-18h-6.99c-2.485 0-4.5 2.015-4.5 4.5zM14.502 24.148l0.008-10.146-0.004-4.506c-0.002-2.484-2.016-4.496-4.5-4.496h-7.006v18h7.514c0 0 0 0 0 0 1.478 0 2.857 0.428 4.018 1.166l-0.030-0.018z"></path>
</symbol>
<symbol id="icon-svgexport-10" viewBox="0 0 32 32">
<path d="M4 5v18c0 0.002 0 0.004 0 0.006 0 1.361 0.545 2.595 1.428 3.495l0 0c0.272 0.278 0.652 0.45 1.072 0.45 0.829 0 1.501-0.672 1.501-1.501 0-0.409-0.164-0.78-0.429-1.050l0 0c-0.354-0.361-0.572-0.855-0.572-1.4 0-1.104 0.895-2 2-2h16v4h-3.5c-0.828 0-1.5 0.672-1.5 1.5s0.672 1.5 1.5 1.5h5c0.828 0 1.5-0.672 1.5-1.5v-25c0-0.828-0.672-1.5-1.5-1.5h-17.5c-2.761 0-5 2.239-5 5zM25 3v15h-16c-0.712 0-1.388 0.148-2 0.416v-13.416c0-1.105 0.895-2 2-2v0h16zM10 24.5v0c0-0.276 0.224-0.5 0.5-0.5h7c0.276 0 0.5 0.224 0.5 0.5v6.5c0 0.276-0.224 0.5-0.5 0.5-0.113 0-0.217-0.038-0.3-0.1l-2.899-2.173c-0.084-0.063-0.188-0.101-0.301-0.101s-0.217 0.038-0.3 0.1l-2.899 2.173c-0.084 0.063-0.188 0.101-0.301 0.101-0.276 0-0.5-0.224-0.5-0.5v-6.5z"></path>
</symbol>
<symbol id="icon-svgexport-11" viewBox="0 0 32 32">
<path fill="#959da5" style="fill: var(--color4, #959da5)" d="M3.5 0c-1.933 0-3.5 1.567-3.5 3.5v0 25c0 1.932 1.568 3.5 3.5 3.5h25c1.933 0 3.5-1.567 3.5-3.5v0-25c0-1.933-1.567-3.5-3.5-3.5v0h-25zM3 3.5c0-0.276 0.224-0.5 0.5-0.5v0h25c0.276 0 0.5 0.224 0.5 0.5v0 25c0 0.276-0.224 0.5-0.5 0.5v0h-25c-0.276 0-0.5-0.224-0.5-0.5v0-25zM23.5 6c-0.828 0-1.5 0.672-1.5 1.5v0 15c0 0.828 0.672 1.5 1.5 1.5s1.5-0.672 1.5-1.5v0-15c0-0.828-0.672-1.5-1.5-1.5v0zM7 7.5c0-0.828 0.672-1.5 1.5-1.5s1.5 0.672 1.5 1.5v0 11c0 0.828-0.672 1.5-1.5 1.5s-1.5-0.672-1.5-1.5v0-11zM16 6c-0.828 0-1.5 0.672-1.5 1.5v0 7c0 0.828 0.672 1.5 1.5 1.5s1.5-0.672 1.5-1.5v0-7c0-0.828-0.672-1.5-1.5-1.5v0z"></path>
</symbol>
<symbol id="icon-svgexport-12" viewBox="0 0 32 32">
<path fill="#959da5" style="fill: var(--color4, #959da5)" d="M17.756 0.784l10.5 6.090c1.080 0.628 1.744 1.78 1.744 3.028v12.196c0 1.248-0.664 2.402-1.744 3.028l-10.484 6.081c-0.52 0.306-1.126 0.481-1.772 0.481s-1.253-0.175-1.756-0.472l-10.5-6.090c-1.080-0.628-1.744-1.78-1.744-3.028v-12.196c0-0 0-0 0-0 0-1.286 0.694-2.41 1.744-3.028l10.484-6.081c0.52-0.306 1.126-0.481 1.772-0.481s1.253 0.175 1.756 0.472zM15.75 3.38l-9.26 5.37 9.51 5.516 9.51-5.516-9.258-5.369c-0.074-0.043-0.16-0.068-0.252-0.068s-0.178 0.025-0.25 0.067zM5 11.354v10.744c0 0.18 0.094 0.342 0.25 0.432l9.25 5.366v-11.032l-9.5-5.51zM17.5 27.896l9.25-5.366c0.15-0.088 0.25-0.248 0.25-0.432v-10.744l-9.5 5.51v11.032z"></path>
</symbol>
<symbol id="icon-svgexport-13" viewBox="0 0 32 32">
<path fill="#6a737d" style="fill: var(--color1, #6a737d)" d="M3 28.5c0 0.276 0.224 0.5 0.5 0.5h4.5v-2.5c0-0.828 0.672-1.5 1.5-1.5v0h5c0.828 0 1.5 0.672 1.5 1.5v0 2.5h4.5c0.276 0 0.5-0.224 0.5-0.5v0-25c0-0.276-0.224-0.5-0.5-0.5v0h-17c-0.276 0-0.5 0.224-0.5 0.5v0 25zM3.5 32c-1.933 0-3.5-1.567-3.5-3.5v0-25c0-1.932 1.568-3.5 3.5-3.5h17c1.932 0 3.5 1.568 3.5 3.5v25c0 0.17-0.012 0.336-0.036 0.5h4.536c0.276 0 0.5-0.224 0.5-0.5v0-11.93c0-0 0-0 0-0 0-0.172-0.087-0.325-0.22-0.414l-0.002-0.001-2.11-1.406c-0.413-0.272-0.682-0.733-0.682-1.257 0-0.828 0.672-1.5 1.5-1.5 0.316 0 0.609 0.098 0.851 0.264l-0.005-0.003 2.11 1.406c0.974 0.65 1.558 1.742 1.558 2.912v11.93c0 1.933-1.567 3.5-3.5 3.5v0h-7c-0.001 0-0.002 0-0.002 0-0.139 0-0.274-0.019-0.402-0.055l0.011 0.003c-0.198 0.034-0.4 0.052-0.606 0.052h-6c-0.828 0-1.5-0.672-1.5-1.5v0-2.5h-2v2.5c0 0.828-0.672 1.5-1.5 1.5v0h-6zM6 7.5c0-0.828 0.672-1.5 1.5-1.5v0h1c0.828 0 1.5 0.672 1.5 1.5s-0.672 1.5-1.5 1.5v0h-1c-0.828 0-1.5-0.672-1.5-1.5v0zM7.5 12c-0.828 0-1.5 0.672-1.5 1.5s0.672 1.5 1.5 1.5v0h1c0.828 0 1.5-0.672 1.5-1.5s-0.672-1.5-1.5-1.5v0h-1zM6 19.5c0-0.828 0.672-1.5 1.5-1.5v0h1c0.828 0 1.5 0.672 1.5 1.5s-0.672 1.5-1.5 1.5v0h-1c-0.828 0-1.5-0.672-1.5-1.5v0zM15.5 18c-0.828 0-1.5 0.672-1.5 1.5s0.672 1.5 1.5 1.5v0h1c0.828 0 1.5-0.672 1.5-1.5s-0.672-1.5-1.5-1.5v0h-1zM14 13.5c0-0.828 0.672-1.5 1.5-1.5v0h1c0.828 0 1.5 0.672 1.5 1.5s-0.672 1.5-1.5 1.5v0h-1c-0.828 0-1.5-0.672-1.5-1.5v0zM15.5 6c-0.828 0-1.5 0.672-1.5 1.5s0.672 1.5 1.5 1.5v0h1c0.828 0 1.5-0.672 1.5-1.5s-0.672-1.5-1.5-1.5v0h-1z"></path>
</symbol>
<symbol id="icon-svgexport-14" viewBox="0 0 32 32">
<path fill="#6a737d" style="fill: var(--color1, #6a737d)" d="M23.072 6.928c1.81 1.81 2.93 4.31 2.93 7.072s-1.12 5.262-2.93 7.072l-7.072 7.068-7.072-7.070c-1.81-1.81-2.929-4.31-2.929-7.072 0-5.524 4.478-10.001 10.001-10.001 2.762 0 5.262 1.119 7.072 2.929v0 0.002zM25.192 23.192c2.353-2.353 3.808-5.603 3.808-9.193 0-7.18-5.82-13-13-13s-13 5.82-13 13c0 3.59 1.455 6.84 3.808 9.193l7.070 7.072c0.543 0.543 1.293 0.879 2.122 0.879s1.579-0.336 2.122-0.879l7.070-7.072zM16 18c2.209 0 4-1.791 4-4s-1.791-4-4-4v0c-2.209 0-4 1.791-4 4s1.791 4 4 4v0z"></path>
</symbol>
<symbol id="icon-svgexport-15" viewBox="0 0 32 32">
<path fill="#6a737d" style="fill: var(--color1, #6a737d)" d="M15.55 6.55c-0.249 0.267-0.403 0.627-0.403 1.023 0 0.828 0.672 1.5 1.5 1.5 0.396 0 0.755-0.153 1.023-0.403l-0.001 0.001 2.5-2.5c0.724-0.724 1.725-1.172 2.83-1.172 2.21 0 4.002 1.792 4.002 4.002 0 1.105-0.448 2.106-1.172 2.83l-5 5c-0.724 0.725-1.725 1.173-2.83 1.173s-2.106-0.448-2.83-1.173l-0-0c-0.267-0.249-0.627-0.403-1.023-0.403-0.828 0-1.5 0.672-1.5 1.5 0 0.396 0.153 0.755 0.403 1.023l-0.001-0.001c1.267 1.267 3.017 2.050 4.95 2.050s3.683-0.784 4.95-2.050l5-5c1.267-1.267 2.050-3.017 2.050-4.95 0-3.866-3.134-7-7-7-1.933 0-3.683 0.784-4.95 2.050l-2.5 2.5zM6.17 25.83c-0.725-0.724-1.173-1.725-1.173-2.83s0.448-2.106 1.173-2.83l5-5c0.724-0.725 1.725-1.173 2.83-1.173s2.106 0.448 2.83 1.173l0 0c0.267 0.249 0.627 0.403 1.023 0.403 0.828 0 1.5-0.672 1.5-1.5 0-0.396-0.153-0.755-0.403-1.023l0.001 0.001c-1.267-1.267-3.017-2.050-4.95-2.050s-3.683 0.784-4.95 2.050l-5 5c-1.267 1.267-2.050 3.017-2.050 4.95 0 3.866 3.134 7 7 7 1.933 0 3.683-0.784 4.95-2.050l2.5-2.5c0.249-0.267 0.403-0.627 0.403-1.023 0-0.828-0.672-1.5-1.5-1.5-0.396 0-0.755 0.153-1.023 0.403l0.001-0.001-2.5 2.5c-0.724 0.725-1.725 1.173-2.83 1.173s-2.106-0.448-2.83-1.173l-0-0z"></path>
</symbol>
<symbol id="icon-svgexport-16" viewBox="0 0 39 32">
<path fill="#6a737d" style="fill: var(--color1, #6a737d)" d="M39.37 3.786c-1.35 0.619-2.917 1.065-4.561 1.26l-0.074 0.007c1.673-1.008 2.93-2.559 3.539-4.405l0.016-0.057c-1.48 0.889-3.201 1.568-5.034 1.94l-0.105 0.018c-1.477-1.57-3.568-2.548-5.888-2.548-4.46 0-8.076 3.616-8.076 8.076 0 0 0 0 0 0v0c-0 0.007-0 0.015-0 0.023 0 0.646 0.079 1.273 0.227 1.873l-0.011-0.053c-6.729-0.351-12.648-3.546-16.623-8.395l-0.032-0.041c-0.688 1.163-1.094 2.564-1.094 4.059 0 2.792 1.416 5.253 3.57 6.704l0.029 0.018c-1.348-0.044-2.602-0.412-3.697-1.029l0.040 0.021v0.101c0 0 0 0 0 0 0 3.895 2.757 7.146 6.425 7.908l0.052 0.009c-0.638 0.183-1.371 0.288-2.128 0.288-0.001 0-0.002 0-0.002 0h0c-0.543-0.005-1.070-0.057-1.581-0.153l0.056 0.009c1.064 3.234 4.025 5.541 7.534 5.614l0.009 0c-2.731 2.154-6.222 3.455-10.016 3.455-0.006 0-0.012 0-0.018 0h0.001c-0.682-0.002-1.352-0.044-2.011-0.123l0.082 0.008c3.493 2.275 7.767 3.628 12.358 3.628 0.008 0 0.015 0 0.023 0h-0.001c14.856 0 22.974-12.308 22.974-22.974 0-0.345-0.014-0.705-0.029-1.051 1.593-1.158 2.935-2.546 4.008-4.131l0.037-0.058z"></path>
</symbol>
<symbol id="icon-svgexport-17" viewBox="0 0 32 32">
<path fill="#6a737d" style="fill: var(--color1, #6a737d)" d="M11 7c-2.209 0-4 1.791-4 4s1.791 4 4 4v0c2.209 0 4-1.791 4-4s-1.791-4-4-4v0zM4 11c0-0 0-0.001 0-0.001 0-3.866 3.134-7 7-7s7 3.134 7 7c0 2.008-0.846 3.819-2.2 5.096l-0.004 0.003c3.187 1.572 5.473 4.551 6.059 8.104l0.009 0.064c0.012 0.071 0.019 0.152 0.019 0.235 0 0.829-0.672 1.501-1.501 1.501-0.746 0-1.364-0.544-1.481-1.257l-0.001-0.009c-0.636-3.838-3.93-6.728-7.9-6.728s-7.264 2.891-7.894 6.682l-0.006 0.047c-0.118 0.721-0.737 1.265-1.482 1.265-0.829 0-1.501-0.672-1.501-1.501 0-0.083 0.007-0.165 0.020-0.245l-0.001 0.009c0.596-3.615 2.882-6.593 6.004-8.135l0.064-0.029c-1.358-1.277-2.204-3.085-2.204-5.090 0-0.003 0-0.007 0-0.010v0.001zM22 8c-0.828 0-1.5 0.672-1.5 1.5s0.672 1.5 1.5 1.5v0c1.657 0 3 1.343 3 3 0 1.172-0.672 2.186-1.651 2.68l-0.017 0.008c-0.497 0.251-0.832 0.758-0.832 1.343 0 0 0 0.001 0 0.001v-0 0.704c0 0.001 0 0.001 0 0.002 0 0.704 0.484 1.294 1.138 1.456l0.010 0.002c2.4 0.578 4.324 2.4 5.044 4.744 0.192 0.622 0.762 1.066 1.436 1.066 0.828 0 1.5-0.672 1.5-1.5 0-0.159-0.025-0.313-0.071-0.457l0.003 0.011c-0.837-2.658-2.676-4.791-5.063-5.998l-0.057-0.026c0.968-1.061 1.56-2.48 1.56-4.036 0-3.314-2.686-6-6-6-0 0-0 0-0 0h0z"></path>
</symbol>
<symbol id="icon-svgexport-18" viewBox="0 0 32 32">
<path fill="#6a737d" style="fill: var(--color1, #6a737d)" d="M16 0.5c0 0 0.001 0 0.001 0 0.587 0 1.095 0.337 1.341 0.827l0.004 0.009 3.764 7.63 8.42 1.224c0.73 0.109 1.284 0.732 1.284 1.484 0 0.421-0.173 0.801-0.452 1.073l-0 0-6.092 5.94 1.438 8.384c0.014 0.076 0.022 0.164 0.022 0.254 0 0.828-0.672 1.5-1.5 1.5-0.255 0-0.495-0.064-0.706-0.176l0.008 0.004-7.532-3.96-7.532 3.96c-0.202 0.108-0.442 0.172-0.697 0.172-0.828 0-1.5-0.672-1.5-1.5 0-0.089 0.008-0.176 0.023-0.261l-0.001 0.009 1.44-8.388-6.096-5.938c-0.28-0.273-0.454-0.654-0.454-1.075 0-0.753 0.555-1.376 1.278-1.484l0.008-0.001 8.42-1.222 3.766-7.63c0.251-0.499 0.758-0.836 1.345-0.836 0 0 0.001 0 0.001 0h-0zM16 5.39l-2.77 5.61c-0.218 0.435-0.63 0.745-1.12 0.819l-0.008 0.001-6.194 0.9 4.48 4.368c0.28 0.273 0.454 0.653 0.454 1.075 0 0.090-0.008 0.177-0.023 0.262l0.001-0.009-1.056 6.168 5.538-2.912c0.202-0.109 0.443-0.172 0.698-0.172s0.496 0.064 0.706 0.176l-0.008-0.004 5.54 2.912-1.060-6.168c-0.014-0.076-0.022-0.164-0.022-0.253 0-0.421 0.174-0.802 0.453-1.074l0-0 4.48-4.366-6.192-0.9c-0.498-0.075-0.91-0.385-1.124-0.811l-0.004-0.009-2.77-5.612z"></path>
</symbol>
<symbol id="icon-svgexport-19" viewBox="0 0 32 32">
<path fill="#6a737d" style="fill: var(--color1, #6a737d)" d="M15.55 6.55c-0.249 0.267-0.403 0.627-0.403 1.023 0 0.828 0.672 1.5 1.5 1.5 0.396 0 0.755-0.153 1.023-0.403l-0.001 0.001 2.5-2.5c0.724-0.724 1.725-1.172 2.83-1.172 2.21 0 4.002 1.792 4.002 4.002 0 1.105-0.448 2.106-1.172 2.83l-5 5c-0.724 0.725-1.725 1.173-2.83 1.173s-2.106-0.448-2.83-1.173l-0-0c-0.267-0.249-0.627-0.403-1.023-0.403-0.828 0-1.5 0.672-1.5 1.5 0 0.396 0.153 0.755 0.403 1.023l-0.001-0.001c1.267 1.267 3.017 2.050 4.95 2.050s3.683-0.784 4.95-2.050l5-5c1.267-1.267 2.050-3.017 2.050-4.95 0-3.866-3.134-7-7-7-1.933 0-3.683 0.784-4.95 2.050l-2.5 2.5zM6.17 25.83c-0.725-0.724-1.173-1.725-1.173-2.83s0.448-2.106 1.173-2.83l5-5c0.724-0.725 1.725-1.173 2.83-1.173s2.106 0.448 2.83 1.173l0 0c0.267 0.249 0.627 0.403 1.023 0.403 0.828 0 1.5-0.672 1.5-1.5 0-0.396-0.153-0.755-0.403-1.023l0.001 0.001c-1.267-1.267-3.017-2.050-4.95-2.050s-3.683 0.784-4.95 2.050l-5 5c-1.267 1.267-2.050 3.017-2.050 4.95 0 3.866 3.134 7 7 7 1.933 0 3.683-0.784 4.95-2.050l2.5-2.5c0.249-0.267 0.403-0.627 0.403-1.023 0-0.828-0.672-1.5-1.5-1.5-0.396 0-0.755 0.153-1.023 0.403l0.001-0.001-2.5 2.5c-0.724 0.725-1.725 1.173-2.83 1.173s-2.106-0.448-2.83-1.173l-0-0z"></path>
</symbol>
<symbol id="icon-svgexport-20" viewBox="0 0 32 32">
<path fill="#959da5" style="fill: var(--color4, #959da5)" d="M7.44 7.44c0.271-0.271 0.646-0.439 1.060-0.439s0.789 0.168 1.060 0.439l6.44 6.44 6.44-6.44c0.275-0.294 0.665-0.477 1.097-0.477 0.828 0 1.5 0.672 1.5 1.5 0 0.433-0.183 0.823-0.477 1.097l-0.001 0.001-6.44 6.44 6.44 6.44c0.294 0.275 0.477 0.665 0.477 1.097 0 0.828-0.672 1.5-1.5 1.5-0.433 0-0.823-0.183-1.097-0.477l-0.001-0.001-6.44-6.44-6.44 6.44c-0.267 0.249-0.627 0.403-1.023 0.403-0.828 0-1.5-0.672-1.5-1.5 0-0.396 0.153-0.755 0.403-1.023l-0.001 0.001 6.44-6.44-6.44-6.44c-0.271-0.271-0.439-0.646-0.439-1.060s0.168-0.789 0.439-1.060l-0 0z"></path>
</symbol>
<symbol id="icon-svgexport-21" viewBox="0 0 32 32">
<path d="M27.56 8.44c0.271 0.271 0.439 0.646 0.439 1.060s-0.168 0.789-0.439 1.060l-14.5 14.5c-0.271 0.271-0.646 0.439-1.060 0.439s-0.789-0.168-1.060-0.439l-6.5-6.5c-0.249-0.267-0.403-0.627-0.403-1.023 0-0.828 0.672-1.5 1.5-1.5 0.396 0 0.755 0.153 1.023 0.403l-0.001-0.001 5.44 5.44 13.44-13.44c0.271-0.271 0.646-0.439 1.060-0.439s0.789 0.168 1.060 0.439l-0-0z"></path>
</symbol>
<symbol id="icon-svgexport-22" viewBox="0 0 32 32">
<path fill="rgba(255, 255, 255, 0.8)" style="fill: var(--color5, rgba(255, 255, 255, 0.8))" d="M4 5v18c0 0.002 0 0.004 0 0.006 0 1.361 0.545 2.595 1.428 3.495l0 0c0.272 0.278 0.652 0.45 1.072 0.45 0.829 0 1.501-0.672 1.501-1.501 0-0.409-0.164-0.78-0.429-1.050l0 0c-0.354-0.361-0.572-0.855-0.572-1.4 0-1.104 0.895-2 2-2h16v4h-3.5c-0.828 0-1.5 0.672-1.5 1.5s0.672 1.5 1.5 1.5h5c0.828 0 1.5-0.672 1.5-1.5v-25c0-0.828-0.672-1.5-1.5-1.5h-17.5c-2.761 0-5 2.239-5 5zM25 3v15h-16c-0.712 0-1.388 0.148-2 0.416v-13.416c0-1.105 0.895-2 2-2v0h16zM10 24.5v0c0-0.276 0.224-0.5 0.5-0.5h7c0.276 0 0.5 0.224 0.5 0.5v6.5c0 0.276-0.224 0.5-0.5 0.5-0.113 0-0.217-0.038-0.3-0.1l-2.899-2.173c-0.084-0.063-0.188-0.101-0.301-0.101s-0.217 0.038-0.3 0.1l-2.899 2.173c-0.084 0.063-0.188 0.101-0.301 0.101-0.276 0-0.5-0.224-0.5-0.5v-6.5z"></path>
</symbol>
<symbol id="icon-svgexport-23" viewBox="0 0 32 32">
<path fill="#6a737d" style="fill: var(--color1, #6a737d)" d="M16 0.5c0 0 0.001 0 0.001 0 0.587 0 1.095 0.337 1.341 0.827l0.004 0.009 3.764 7.63 8.42 1.224c0.73 0.109 1.284 0.732 1.284 1.484 0 0.421-0.173 0.801-0.452 1.073l-0 0-6.092 5.94 1.438 8.384c0.014 0.076 0.022 0.164 0.022 0.254 0 0.828-0.672 1.5-1.5 1.5-0.255 0-0.495-0.064-0.706-0.176l0.008 0.004-7.532-3.96-7.532 3.96c-0.202 0.108-0.442 0.172-0.697 0.172-0.828 0-1.5-0.672-1.5-1.5 0-0.089 0.008-0.176 0.023-0.261l-0.001 0.009 1.44-8.388-6.096-5.938c-0.28-0.273-0.454-0.654-0.454-1.075 0-0.753 0.555-1.376 1.278-1.484l0.008-0.001 8.42-1.222 3.766-7.63c0.251-0.499 0.758-0.836 1.345-0.836 0 0 0.001 0 0.001 0h-0z"></path>
</symbol>
<symbol id="icon-svgexport-24" viewBox="0 0 32 32">
<path fill="#6a737d" style="fill: var(--color1, #6a737d)" d="M16 0.5c0 0 0.001 0 0.001 0 0.587 0 1.095 0.337 1.341 0.827l0.004 0.009 3.764 7.63 8.42 1.224c0.73 0.109 1.284 0.732 1.284 1.484 0 0.421-0.173 0.801-0.452 1.073l-0 0-6.092 5.94 1.438 8.384c0.014 0.076 0.022 0.164 0.022 0.254 0 0.828-0.672 1.5-1.5 1.5-0.255 0-0.495-0.064-0.706-0.176l0.008 0.004-7.532-3.96-7.532 3.96c-0.202 0.108-0.442 0.172-0.697 0.172-0.828 0-1.5-0.672-1.5-1.5 0-0.089 0.008-0.176 0.023-0.261l-0.001 0.009 1.44-8.388-6.096-5.938c-0.28-0.273-0.454-0.654-0.454-1.075 0-0.753 0.555-1.376 1.278-1.484l0.008-0.001 8.42-1.222 3.766-7.63c0.251-0.499 0.758-0.836 1.345-0.836 0 0 0.001 0 0.001 0h-0zM16 5.39l-2.77 5.61c-0.218 0.435-0.63 0.745-1.12 0.819l-0.008 0.001-6.194 0.9 4.48 4.368c0.28 0.273 0.454 0.653 0.454 1.075 0 0.090-0.008 0.177-0.023 0.262l0.001-0.009-1.056 6.168 5.538-2.912c0.202-0.109 0.443-0.172 0.698-0.172s0.496 0.064 0.706 0.176l-0.008-0.004 5.54 2.912-1.060-6.168c-0.014-0.076-0.022-0.164-0.022-0.253 0-0.421 0.174-0.802 0.453-1.074l0-0 4.48-4.366-6.192-0.9c-0.498-0.075-0.91-0.385-1.124-0.811l-0.004-0.009-2.77-5.612z"></path>
</symbol>
<symbol id="icon-svgexport-25" viewBox="0 0 165 32">
<path d="M0-14.933h165.333v32h-165.333v-32z"></path>
</symbol>
<symbol id="icon-svgexport-26" viewBox="0 0 32 32">
<path fill="#586069" style="fill: var(--color3, #586069)" d="M16 0.5c0 0 0.001 0 0.001 0 0.587 0 1.095 0.337 1.341 0.827l0.004 0.009 3.764 7.63 8.42 1.224c0.73 0.109 1.284 0.732 1.284 1.484 0 0.421-0.173 0.801-0.452 1.073l-0 0-6.092 5.94 1.438 8.384c0.014 0.076 0.022 0.164 0.022 0.254 0 0.828-0.672 1.5-1.5 1.5-0.255 0-0.495-0.064-0.706-0.176l0.008 0.004-7.532-3.96-7.532 3.96c-0.202 0.108-0.442 0.172-0.697 0.172-0.828 0-1.5-0.672-1.5-1.5 0-0.089 0.008-0.176 0.023-0.261l-0.001 0.009 1.44-8.388-6.096-5.938c-0.28-0.273-0.454-0.654-0.454-1.075 0-0.753 0.555-1.376 1.278-1.484l0.008-0.001 8.42-1.222 3.766-7.63c0.251-0.499 0.758-0.836 1.345-0.836 0 0 0.001 0 0.001 0h-0zM16 5.39l-2.77 5.61c-0.218 0.435-0.63 0.745-1.12 0.819l-0.008 0.001-6.194 0.9 4.48 4.368c0.28 0.273 0.454 0.653 0.454 1.075 0 0.090-0.008 0.177-0.023 0.262l0.001-0.009-1.056 6.168 5.538-2.912c0.202-0.109 0.443-0.172 0.698-0.172s0.496 0.064 0.706 0.176l-0.008-0.004 5.54 2.912-1.060-6.168c-0.014-0.076-0.022-0.164-0.022-0.253 0-0.421 0.174-0.802 0.453-1.074l0-0 4.48-4.366-6.192-0.9c-0.498-0.075-0.91-0.385-1.124-0.811l-0.004-0.009-2.77-5.612z"></path>
</symbol>
<symbol id="icon-svgexport-27" viewBox="0 0 165 32">
<path d="M0-6.4h165.333v32h-165.333v-32z"></path>
</symbol>
<symbol id="icon-svgexport-28" viewBox="0 0 165 32">
<path d="M0-7.467h165.333v32h-165.333v-32z"></path>
</symbol>
<symbol id="icon-svgexport-29" viewBox="0 0 165 32">
<path d="M0-8.533h165.333v32h-165.333v-32z"></path>
</symbol>
<symbol id="icon-svgexport-30" viewBox="0 0 165 32">
<path d="M0-11.733h165.333v32h-165.333v-32z"></path>
</symbol>
<symbol id="icon-svgexport-31" viewBox="0 0 165 32">
<path d="M0-9.6h165.333v32h-165.333v-32z"></path>
</symbol>
<symbol id="icon-svgexport-32" viewBox="0 0 32 32">
<path fill="#586069" style="fill: var(--color3, #586069)" d="M10 6.5c0 0.828-0.672 1.5-1.5 1.5s-1.5-0.672-1.5-1.5v0c0-0.828 0.672-1.5 1.5-1.5s1.5 0.672 1.5 1.5v0zM10 10.744c1.763-0.636 3-2.295 3-4.243 0-2.485-2.015-4.5-4.5-4.5s-4.5 2.015-4.5 4.5c0 1.948 1.237 3.606 2.969 4.233l0.031 0.010v1.756c0 2.485 2.015 4.5 4.5 4.5v0h3v4.256c-1.764 0.637-3.002 2.296-3.002 4.245 0 2.486 2.016 4.502 4.502 4.502s4.502-2.016 4.502-4.502c0-1.949-1.238-3.608-2.971-4.235l-0.031-0.010v-4.256h3c2.485 0 4.5-2.015 4.5-4.5v0-1.756c1.763-0.636 3-2.295 3-4.243 0-2.485-2.015-4.5-4.5-4.5s-4.5 2.015-4.5 4.5c0 1.948 1.237 3.606 2.969 4.233l0.031 0.010v1.756c0 0.828-0.672 1.5-1.5 1.5v0h-9c-0.828 0-1.5-0.672-1.5-1.5v0-1.756zM17.5 25.5c0 0.828-0.672 1.5-1.5 1.5s-1.5-0.672-1.5-1.5v0c0-0.828 0.672-1.5 1.5-1.5s1.5 0.672 1.5 1.5v0zM23.5 8c0.828 0 1.5-0.672 1.5-1.5s-0.672-1.5-1.5-1.5v0c-0.828 0-1.5 0.672-1.5 1.5s0.672 1.5 1.5 1.5v0z"></path>
</symbol>
<symbol id="icon-svgexport-33" viewBox="0 0 165 32">
<path d="M0-7.467h165.333v32h-165.333v-32z"></path>
</symbol>
<symbol id="icon-svgexport-34" viewBox="0 0 165 32">
<path d="M0-8.533h165.333v32h-165.333v-32z"></path>
</symbol>
<symbol id="icon-svgexport-35" viewBox="0 0 165 32">
<path d="M0-12.8h165.333v32h-165.333v-32z"></path>
</symbol>
<symbol id="icon-svgexport-36" viewBox="0 0 165 32">
<path d="M0-12.8h165.333v32h-165.333v-32z"></path>
</symbol>
<symbol id="icon-svgexport-37" viewBox="0 0 165 32">
<path d="M0 0h165.333v32h-165.333v-32z"></path>
</symbol>
<symbol id="icon-svgexport-38" viewBox="0 0 165 32">
<path d="M0-13.867h165.333v32h-165.333v-32z"></path>
</symbol>
<symbol id="icon-svgexport-39" viewBox="0 0 165 32">
<path d="M0-13.867h165.333v32h-165.333v-32z"></path>
</symbol>
<symbol id="icon-svgexport-40" viewBox="0 0 165 32">
<path d="M0-13.867h165.333v32h-165.333v-32z"></path>
</symbol>
<symbol id="icon-svgexport-41" viewBox="0 0 165 32">
<path d="M0-13.867h165.333v32h-165.333v-32z"></path>
</symbol>
<symbol id="icon-svgexport-42" viewBox="0 0 165 32">
<path d="M0-13.867h165.333v32h-165.333v-32z"></path>
</symbol>
<symbol id="icon-svgexport-43" viewBox="0 0 32 32">
<path fill="#d1d5da" style="fill: var(--color6, #d1d5da)" d="M16 0c-8.84 0-16 7.16-16 16 0 7.080 4.58 13.060 10.94 15.18 0.8 0.14 1.1-0.34 1.1-0.76 0-0.38-0.020-1.64-0.020-2.98-4.020 0.74-5.060-0.98-5.38-1.88-0.18-0.46-0.96-1.88-1.64-2.26-0.56-0.3-1.36-1.040-0.020-1.060 1.26-0.020 2.16 1.16 2.46 1.64 1.44 2.42 3.74 1.74 4.66 1.32 0.14-1.040 0.56-1.74 1.020-2.14-3.56-0.4-7.28-1.78-7.28-7.9 0-1.74 0.62-3.18 1.64-4.3-0.16-0.4-0.72-2.040 0.16-4.24 0 0 1.34-0.42 4.4 1.64 1.28-0.36 2.64-0.54 4-0.54s2.72 0.18 4 0.54c3.060-2.080 4.4-1.64 4.4-1.64 0.88 2.2 0.32 3.84 0.16 4.24 1.020 1.12 1.64 2.54 1.64 4.3 0 6.14-3.74 7.5-7.3 7.9 0.58 0.5 1.080 1.46 1.080 2.96 0 2.14-0.020 3.86-0.020 4.4 0 0.42 0.3 0.92 1.1 0.76 6.39-2.204 10.898-8.165 10.9-15.18v-0c0-8.84-7.16-16-16-16z"></path>
</symbol>
<symbol id="icon-svgexport-44" viewBox="0 0 32 32">
<path fill="rgba(158, 28, 35, 0.6)" style="fill: var(--color7, rgba(158, 28, 35, 0.6))" d="M16.44 3.508c-0.086-0.158-0.251-0.263-0.44-0.263s-0.354 0.105-0.439 0.26l-0.001 0.003-12.164 22.756c-0.037 0.068-0.059 0.15-0.059 0.236 0 0.276 0.223 0.5 0.499 0.5h24.328c0.276-0 0.499-0.224 0.499-0.5 0-0.086-0.022-0.168-0.061-0.239l0.001 0.003-12.164-22.756zM12.914 2.094c1.318-2.468 4.854-2.468 6.172 0l12.164 22.756c0.26 0.478 0.413 1.046 0.413 1.65 0 1.933-1.567 3.5-3.499 3.5h-24.328c-1.933-0-3.499-1.567-3.499-3.5 0-0.604 0.153-1.172 0.422-1.668l-0.009 0.018 12.164-22.756zM18 22c0 1.105-0.895 2-2 2s-2-0.895-2-2v0c0-1.105 0.895-2 2-2s2 0.895 2 2v0zM17.5 11.5c0-0.828-0.672-1.5-1.5-1.5s-1.5 0.672-1.5 1.5v0 5c0 0.828 0.672 1.5 1.5 1.5s1.5-0.672 1.5-1.5v0-5z"></path>
</symbol>
<symbol id="icon-svgexport-45" viewBox="0 0 32 32">
<path fill="rgba(158, 28, 35, 0.6)" style="fill: var(--color7, rgba(158, 28, 35, 0.6))" d="M7.44 7.44c0.271-0.271 0.646-0.439 1.060-0.439s0.789 0.168 1.060 0.439l6.44 6.44 6.44-6.44c0.275-0.294 0.665-0.477 1.097-0.477 0.828 0 1.5 0.672 1.5 1.5 0 0.433-0.183 0.823-0.477 1.097l-0.001 0.001-6.44 6.44 6.44 6.44c0.294 0.275 0.477 0.665 0.477 1.097 0 0.828-0.672 1.5-1.5 1.5-0.433 0-0.823-0.183-1.097-0.477l-0.001-0.001-6.44-6.44-6.44 6.44c-0.267 0.249-0.627 0.403-1.023 0.403-0.828 0-1.5-0.672-1.5-1.5 0-0.396 0.153-0.755 0.403-1.023l-0.001 0.001 6.44-6.44-6.44-6.44c-0.271-0.271-0.439-0.646-0.439-1.060s0.168-0.789 0.439-1.060l-0 0z"></path>
</symbol>
<symbol id="icon-svgexport-46" viewBox="0 0 32 32">
<path fill="#b08800" style="fill: var(--color8, #b08800)" d="M16.44 3.508c-0.086-0.158-0.251-0.263-0.44-0.263s-0.354 0.105-0.439 0.26l-0.001 0.003-12.164 22.756c-0.037 0.068-0.059 0.15-0.059 0.236 0 0.276 0.223 0.5 0.499 0.5h24.328c0.276-0 0.499-0.224 0.499-0.5 0-0.086-0.022-0.168-0.061-0.239l0.001 0.003-12.164-22.756zM12.914 2.094c1.318-2.468 4.854-2.468 6.172 0l12.164 22.756c0.26 0.478 0.413 1.046 0.413 1.65 0 1.933-1.567 3.5-3.499 3.5h-24.328c-1.933-0-3.499-1.567-3.499-3.5 0-0.604 0.153-1.172 0.422-1.668l-0.009 0.018 12.164-22.756zM18 22c0 1.105-0.895 2-2 2s-2-0.895-2-2v0c0-1.105 0.895-2 2-2s2 0.895 2 2v0zM17.5 11.5c0-0.828-0.672-1.5-1.5-1.5s-1.5 0.672-1.5 1.5v0 5c0 0.828 0.672 1.5 1.5 1.5s1.5-0.672 1.5-1.5v0-5z"></path>
</symbol>
</defs>
</svg>
